<svg width="23" height="14" viewBox="0 0 23 14" fill="none" xmlns="http://www.w3.org/2000/svg">
<path d="M7.01877 0.624711C9.35291 -0.385583 12.1651 0.56348 13.5712 2.82899C14.893 2.033 16.6085 2.033 17.7896 3.07391C18.5208 3.59436 18.802 4.48219 19.0832 5.3088C20.4893 5.61495 21.9517 6.5334 22.4579 8.15599C23.0766 9.8092 22.3735 11.8298 20.9955 12.7482C20.1519 13.4218 19.1676 13.6667 18.1833 13.6667H4.96584C2.82855 13.6667 0.663139 11.8298 0.747505 9.38059C0.747505 7.45185 2.15362 6.01294 3.78471 5.40065C3.78471 3.2576 5.19082 1.26762 7.01877 0.563479V0.624711Z" fill="#ACA6A6" stroke="#ACA6A6" stroke-width="0.1"/>
</svg>
