<svg width="55" height="34" viewBox="0 0 55 34" fill="none" xmlns="http://www.w3.org/2000/svg">
<path d="M15.7147 1.3088C21.4793 -1.18632 28.4247 1.15757 31.8974 6.75269C35.1617 4.78684 39.3983 4.78684 42.3154 7.35757C44.1211 8.64293 44.8157 10.8356 45.5102 12.8771C48.9829 13.6332 52.5945 15.9015 53.8446 19.9088C55.3726 23.9917 53.6363 28.9819 50.233 31.2502C48.1494 32.9136 45.7186 33.5185 43.2877 33.5185H10.6446C5.36615 33.5185 0.0182407 28.9819 0.226601 22.9331C0.226601 18.1697 3.69927 14.6161 7.72757 13.1039C7.72757 7.81122 11.2002 2.89659 15.7147 1.15757V1.3088Z" fill="#ACA6A6" stroke="#ACA6A6" stroke-width="0.1"/>
</svg>
